<svg width="20" height="20" viewBox="0 0 20 20" fill="none" xmlns="http://www.w3.org/2000/svg">
<g id="Frame">
<path id="Vector" d="M4.33672 14.3375L12.7344 5.93751H6.875C6.62636 5.93751 6.3879 5.83874 6.21209 5.66292C6.03627 5.48711 5.9375 5.24865 5.9375 5.00001C5.9375 4.75137 6.03627 4.51291 6.21209 4.3371C6.3879 4.16128 6.62636 4.06251 6.875 4.06251H15C15.2486 4.06251 15.4871 4.16128 15.6629 4.3371C15.8387 4.51291 15.9375 4.75137 15.9375 5.00001V13.125C15.9375 13.3737 15.8387 13.6121 15.6629 13.7879C15.4871 13.9637 15.2486 14.0625 15 14.0625C14.7514 14.0625 14.5129 13.9637 14.3371 13.7879C14.1613 13.6121 14.0625 13.3737 14.0625 13.125V7.26563L5.66328 15.6633C5.57608 15.7505 5.47255 15.8197 5.35861 15.8669C5.24467 15.9141 5.12255 15.9384 4.99922 15.9384C4.87589 15.9384 4.75377 15.9141 4.63983 15.8669C4.52589 15.8197 4.42236 15.7505 4.33516 15.6633C4.24795 15.5761 4.17877 15.4726 4.13158 15.3586C4.08438 15.2447 4.06009 15.1226 4.06009 14.9992C4.06009 14.8759 4.08438 14.7538 4.13158 14.6398C4.17877 14.5259 4.24795 14.4224 4.33516 14.3352L4.33672 14.3375Z" fill="#EC5B2A"/>
</g>
</svg>
