<svg width="32" height="32" viewBox="0 0 32 32" fill="none" xmlns="http://www.w3.org/2000/svg">
<g id="category_24dp_E8EAED_FILL0_wght400_GRAD0_opsz24">
<path id="Vector" d="M8.66667 14.6665L16 2.6665L23.3333 14.6665H8.66667ZM23.3333 29.3332C21.6667 29.3332 20.25 28.7498 19.0833 27.5832C17.9167 26.4165 17.3333 24.9998 17.3333 23.3332C17.3333 21.6665 17.9167 20.2498 19.0833 19.0832C20.25 17.9165 21.6667 17.3332 23.3333 17.3332C25 17.3332 26.4167 17.9165 27.5833 19.0832C28.75 20.2498 29.3333 21.6665 29.3333 23.3332C29.3333 24.9998 28.75 26.4165 27.5833 27.5832C26.4167 28.7498 25 29.3332 23.3333 29.3332ZM4 28.6665V17.9998H14.6667V28.6665H4ZM23.3333 26.6665C24.2667 26.6665 25.0556 26.3443 25.7 25.6998C26.3444 25.0554 26.6667 24.2665 26.6667 23.3332C26.6667 22.3998 26.3444 21.6109 25.7 20.9665C25.0556 20.3221 24.2667 19.9998 23.3333 19.9998C22.4 19.9998 21.6111 20.3221 20.9667 20.9665C20.3222 21.6109 20 22.3998 20 23.3332C20 24.2665 20.3222 25.0554 20.9667 25.6998C21.6111 26.3443 22.4 26.6665 23.3333 26.6665ZM6.66667 25.9998H12V20.6665H6.66667V25.9998ZM13.4 11.9998H18.6L16 7.79984L13.4 11.9998Z" fill="#EC5B2A"/>
</g>
</svg>
