<svg width="32" height="32" viewBox="0 0 32 32" fill="none" xmlns="http://www.w3.org/2000/svg">
<g id="Frame">
<path id="Vector" d="M18.7014 10.7136L7.5014 21.7136C7.31436 21.8976 7.06251 22.0007 6.80015 22.0007C6.53779 22.0007 6.28594 21.8976 6.0989 21.7136L1.2989 16.9999C1.20525 16.9078 1.13066 16.7981 1.07938 16.6772C1.0281 16.5563 1.00114 16.4265 1.00004 16.2951C0.998933 16.1638 1.02371 16.0335 1.07295 15.9118C1.12219 15.79 1.19493 15.6791 1.28702 15.5855C1.37911 15.4918 1.48875 15.4172 1.60966 15.366C1.73058 15.3147 1.86042 15.2877 1.99175 15.2866C2.12309 15.2855 2.25336 15.3103 2.37512 15.3595C2.49688 15.4088 2.60775 15.4815 2.7014 15.5736L6.80015 19.5986L17.3001 9.28612C17.4894 9.10013 17.7449 8.99697 18.0102 8.99931C18.1416 9.00047 18.2715 9.0275 18.3925 9.07885C18.5134 9.13021 18.6231 9.20488 18.7151 9.29862C18.8072 9.39235 18.88 9.5033 18.9292 9.62514C18.9784 9.74697 19.0031 9.87731 19.002 10.0087C19.0008 10.1401 18.9738 10.27 18.9224 10.3909C18.8711 10.5119 18.7964 10.6215 18.7026 10.7136H18.7014ZM30.7139 9.29862C30.6219 9.20481 30.5122 9.13008 30.3913 9.07868C30.2703 9.02728 30.1404 9.00022 30.009 8.99906C29.8776 8.9979 29.7472 9.02266 29.6254 9.07191C29.5035 9.12117 29.3926 9.19395 29.2989 9.28612L18.7989 19.5986L16.4451 17.2861C16.2559 17.1003 16.0005 16.9973 15.7352 16.9998C15.47 17.0022 15.2166 17.1099 15.0308 17.2992C14.845 17.4885 14.7419 17.7439 14.7444 18.0091C14.7469 18.2744 14.8546 18.5278 15.0439 18.7136L18.0976 21.7136C18.2847 21.8976 18.5365 22.0007 18.7989 22.0007C19.0613 22.0007 19.3131 21.8976 19.5001 21.7136L30.7001 10.7136C30.794 10.6216 30.8689 10.5121 30.9204 10.3912C30.9719 10.2703 30.9991 10.1404 31.0003 10.009C31.0016 9.87755 30.977 9.74717 30.9278 9.62528C30.8787 9.50339 30.806 9.39239 30.7139 9.29862Z" fill="#EC5B2A"/>
</g>
</svg>
