<svg width="32" height="32" viewBox="0 0 32 32" fill="none" xmlns="http://www.w3.org/2000/svg">
<g id="Frame">
<path id="Vector" d="M26.0612 23.939C26.343 24.2208 26.5013 24.603 26.5013 25.0015C26.5013 25.4 26.343 25.7822 26.0612 26.064C25.7794 26.3458 25.3972 26.5041 24.9987 26.5041C24.6002 26.5041 24.218 26.3458 23.9362 26.064L15.9999 18.1252L8.0612 26.0615C7.7794 26.3433 7.39721 26.5016 6.9987 26.5016C6.60018 26.5016 6.21799 26.3433 5.9362 26.0615C5.6544 25.7797 5.49609 25.3975 5.49609 24.999C5.49609 24.6005 5.6544 24.2183 5.9362 23.9365L13.8749 16.0002L5.9387 8.06147C5.6569 7.77968 5.49859 7.39748 5.49859 6.99897C5.49859 6.60045 5.6569 6.21826 5.9387 5.93647C6.22049 5.65468 6.60268 5.49637 7.0012 5.49637C7.39971 5.49637 7.7819 5.65468 8.0637 5.93647L15.9999 13.8752L23.9387 5.93522C24.2205 5.65343 24.6027 5.49512 25.0012 5.49512C25.3997 5.49512 25.7819 5.65343 26.0637 5.93522C26.3455 6.21701 26.5038 6.5992 26.5038 6.99772C26.5038 7.39623 26.3455 7.77843 26.0637 8.06022L18.1249 16.0002L26.0612 23.939Z" fill="#0C0D0E"/>
</g>
</svg>
