<svg width="24" height="24" viewBox="0 0 24 24" fill="none" xmlns="http://www.w3.org/2000/svg">
<g id="Frame">
<path id="Vector" d="M21.5755 2.42438C21.3399 2.18867 21.0457 2.02003 20.7232 1.93583C20.4007 1.85162 20.0617 1.8549 19.7409 1.94531L19.7202 1.95188L1.72867 7.40625C1.36378 7.51209 1.03965 7.72627 0.799216 8.02044C0.558778 8.31461 0.413378 8.67487 0.382272 9.05353C0.351167 9.43218 0.435825 9.81134 0.625033 10.1408C0.81424 10.4703 1.09907 10.7345 1.4418 10.8984L9.28117 14.7188L13.0977 22.5609C13.2482 22.881 13.487 23.1514 13.7859 23.3404C14.0849 23.5294 14.4316 23.6291 14.7852 23.6278C14.8387 23.6278 14.893 23.6278 14.9474 23.6213C15.3271 23.592 15.6886 23.4469 15.9831 23.2054C16.2775 22.9639 16.4907 22.6378 16.5937 22.2713L22.048 4.27969C22.0508 4.273 22.053 4.26611 22.0546 4.25906C22.145 3.93827 22.1483 3.59918 22.0641 3.2767C21.9799 2.95422 21.8113 2.66001 21.5755 2.42438ZM14.7102 20.7253L11.488 14.1028L15.8005 9.795C15.9052 9.69036 15.9882 9.56612 16.0448 9.42939C16.1015 9.29267 16.1306 9.14612 16.1306 8.99813C16.1306 8.85013 16.1015 8.70359 16.0448 8.56686C15.9882 8.43013 15.9052 8.3059 15.8005 8.20125C15.6959 8.09661 15.5717 8.01359 15.4349 7.95696C15.2982 7.90033 15.1517 7.87118 15.0037 7.87118C14.8557 7.87118 14.7091 7.90033 14.5724 7.95696C14.4357 8.01359 14.3114 8.09661 14.2068 8.20125L9.89429 12.5138L3.27461 9.28969L19.6874 4.3125L14.7102 20.7253Z" fill="#EC5B2A"/>
</g>
</svg>
