<svg width="32" height="32" viewBox="0 0 32 32" fill="none" xmlns="http://www.w3.org/2000/svg">
<path d="M9 18H4C3.73478 18 3.48043 17.8946 3.29289 17.7071C3.10536 17.5196 3 17.2652 3 17C3 16.7348 3.10536 16.4804 3.29289 16.2929C3.48043 16.1054 3.73478 16 4 16H8.465L10.1675 13.445C10.2588 13.3078 10.3825 13.1953 10.5278 13.1175C10.673 13.0397 10.8352 12.999 11 12.999C11.1648 12.999 11.327 13.0397 11.4722 13.1175C11.6175 13.1953 11.7412 13.3078 11.8325 13.445L15 18.195L16.1675 16.445C16.2589 16.308 16.3827 16.1957 16.5279 16.1181C16.6732 16.0405 16.8353 15.9999 17 16H20C20.2652 16 20.5196 16.1054 20.7071 16.2929C20.8946 16.4804 21 16.7348 21 17C21 17.2652 20.8946 17.5196 20.7071 17.7071C20.5196 17.8946 20.2652 18 20 18H17.535L15.8325 20.555C15.7412 20.6922 15.6175 20.8047 15.4722 20.8825C15.327 20.9603 15.1648 21.001 15 21.001C14.8352 21.001 14.673 20.9603 14.5278 20.8825C14.3825 20.8047 14.2588 20.6922 14.1675 20.555L11 15.8025L9.8325 17.5525C9.74139 17.6899 9.6177 17.8027 9.47246 17.8808C9.32721 17.9589 9.1649 17.9998 9 18ZM22.25 5C19.6688 5 17.4088 6.11 16 7.98625C14.5912 6.11 12.3313 5 9.75 5C7.69528 5.00232 5.72539 5.81958 4.27248 7.27248C2.81958 8.72539 2.00232 10.6953 2 12.75C2 12.8438 2 12.9375 2 13.0312C2.00829 13.2965 2.12159 13.5475 2.31499 13.7292C2.50839 13.9109 2.76603 14.0083 3.03125 14C3.29647 13.9917 3.54753 13.8784 3.7292 13.685C3.91088 13.4916 4.00829 13.234 4 12.9688C4 12.8962 4 12.8225 4 12.75C4.00198 11.2256 4.60842 9.76423 5.68633 8.68633C6.76423 7.60842 8.22561 7.00198 9.75 7C12.1812 7 14.2225 8.295 15.075 10.375C15.1503 10.5584 15.2785 10.7153 15.4432 10.8257C15.6079 10.9361 15.8017 10.995 16 10.995C16.1983 10.995 16.3921 10.9361 16.5568 10.8257C16.7215 10.7153 16.8497 10.5584 16.925 10.375C17.7775 8.29125 19.8188 7 22.25 7C23.7744 7.00198 25.2358 7.60842 26.3137 8.68633C27.3916 9.76423 27.998 11.2256 28 12.75C28 19.4513 18.28 25.5188 16 26.85C14.6462 26.0613 10.6712 23.6 7.665 20.3237C7.57619 20.2269 7.46918 20.1485 7.35007 20.093C7.23096 20.0375 7.10209 20.006 6.97081 20.0003C6.83953 19.9946 6.70842 20.0149 6.58496 20.0598C6.46149 20.1048 6.3481 20.1737 6.25125 20.2625C6.1544 20.3513 6.07599 20.4583 6.0205 20.5774C5.965 20.6965 5.93352 20.8254 5.92783 20.9567C5.92214 21.088 5.94237 21.2191 5.98735 21.3425C6.03233 21.466 6.10119 21.5794 6.19 21.6763C10.0863 25.9263 15.3062 28.7612 15.5262 28.88C15.6719 28.9583 15.8346 28.9993 16 28.9993C16.1654 28.9993 16.3281 28.9583 16.4737 28.88C17.0262 28.5825 30 21.5 30 12.75C29.9977 10.6953 29.1804 8.72539 27.7275 7.27248C26.2746 5.81958 24.3047 5.00232 22.25 5Z" fill="#191919"/>
</svg>
