<svg width="32" height="32" viewBox="0 0 32 32" fill="none" xmlns="http://www.w3.org/2000/svg">
<path d="M14.5 22C14.5 22.2652 14.3946 22.5196 14.2071 22.7071C14.0196 22.8946 13.7652 23 13.5 23H10C9.73478 23 9.48043 22.8946 9.29289 22.7071C9.10536 22.5196 9 22.2652 9 22C9 21.7348 9.10536 21.4804 9.29289 21.2929C9.48043 21.1054 9.73478 21 10 21H13.5C13.7652 21 14.0196 21.1054 14.2071 21.2929C14.3946 21.4804 14.5 21.7348 14.5 22ZM22 21H18.5C18.2348 21 17.9804 21.1054 17.7929 21.2929C17.6054 21.4804 17.5 21.7348 17.5 22C17.5 22.2652 17.6054 22.5196 17.7929 22.7071C17.9804 22.8946 18.2348 23 18.5 23H22C22.2652 23 22.5196 22.8946 22.7071 22.7071C22.8946 22.5196 23 22.2652 23 22C23 21.7348 22.8946 21.4804 22.7071 21.2929C22.5196 21.1054 22.2652 21 22 21ZM30 27C30 27.2652 29.8946 27.5196 29.7071 27.7071C29.5196 27.8946 29.2652 28 29 28H3C2.73478 28 2.48043 27.8946 2.29289 27.7071C2.10536 27.5196 2 27.2652 2 27C2 26.7348 2.10536 26.4804 2.29289 26.2929C2.48043 26.1054 2.73478 26 3 26H4V11C4 10.8143 4.05171 10.6322 4.14935 10.4743C4.24698 10.3163 4.38668 10.1886 4.55279 10.1056C4.71889 10.0225 4.90484 9.98736 5.08981 10.004C5.27477 10.0207 5.45143 10.0886 5.6 10.2L12 15V11C12 10.8143 12.0517 10.6322 12.1493 10.4743C12.247 10.3163 12.3867 10.1886 12.5528 10.1056C12.7189 10.0225 12.9048 9.98736 13.0898 10.004C13.2748 10.0207 13.4514 10.0886 13.6 10.2L18.4425 13.8313L19.8875 3.7175C19.9575 3.24169 20.1957 2.80675 20.559 2.49162C20.9223 2.17649 21.3866 2.00206 21.8675 2H24.1325C24.6134 2.00206 25.0777 2.17649 25.441 2.49162C25.8043 2.80675 26.0425 3.24169 26.1125 3.7175L27.9875 16.8587C27.9875 16.8587 27.9975 16.9563 27.9975 17V26H28.9975C29.129 25.9997 29.2593 26.0253 29.381 26.0754C29.5026 26.1255 29.6131 26.1991 29.7062 26.292C29.7993 26.3849 29.8732 26.4952 29.9236 26.6167C29.9741 26.7382 30 26.8685 30 27ZM20.2675 15.2L21.3337 16H25.8475L24.1325 4H21.8675L20.2675 15.2ZM6 26H26V18H21C20.7836 18 20.5731 17.9298 20.4 17.8L18.6 16.45L14 13V17C14 17.1857 13.9483 17.3678 13.8507 17.5257C13.753 17.6837 13.6133 17.8114 13.4472 17.8944C13.2811 17.9775 13.0952 18.0126 12.9102 17.996C12.7252 17.9793 12.5486 17.9114 12.4 17.8L6 13V26Z" fill="#191919"/>
</svg>
