<svg width="32" height="32" viewBox="0 0 32 32" fill="none" xmlns="http://www.w3.org/2000/svg">
<g id="Frame">
<path id="Vector" d="M28.7675 7.35875C28.6736 7.24642 28.5562 7.15607 28.4236 7.09408C28.291 7.03209 28.1464 6.99998 28 7H7.835L7.075 2.82125C7.03314 2.59083 6.91174 2.38242 6.73196 2.23234C6.55218 2.08226 6.32544 2.00003 6.09125 2H3C2.73478 2 2.48043 2.10536 2.29289 2.29289C2.10536 2.48043 2 2.73478 2 3C2 3.26522 2.10536 3.51957 2.29289 3.70711C2.48043 3.89464 2.73478 4 3 4H5.25L8.445 21.5362C8.53911 22.0563 8.76895 22.5423 9.11125 22.945C8.63881 23.3863 8.29781 23.9498 8.12607 24.573C7.95433 25.1962 7.95856 25.8549 8.13829 26.4759C8.31801 27.0968 8.66622 27.6559 9.14428 28.0911C9.62235 28.5263 10.2116 28.8205 10.8467 28.9412C11.4818 29.062 12.1379 29.0044 12.7423 28.775C13.3467 28.5456 13.8758 28.1533 14.2708 27.6416C14.6658 27.1299 14.9114 26.5187 14.9804 25.8759C15.0493 25.2332 14.9388 24.5838 14.6613 24H20.3388C20.115 24.4684 19.9993 24.981 20 25.5C20 26.1922 20.2053 26.8689 20.5899 27.4445C20.9744 28.0201 21.5211 28.4687 22.1606 28.7336C22.8001 28.9985 23.5039 29.0678 24.1828 28.9327C24.8617 28.7977 25.4854 28.4644 25.9749 27.9749C26.4644 27.4854 26.7977 26.8617 26.9327 26.1828C27.0678 25.5039 26.9985 24.8001 26.7336 24.1606C26.4687 23.5211 26.0201 22.9744 25.4445 22.5899C24.8689 22.2053 24.1922 22 23.5 22H11.3962C11.1621 22 10.9353 21.9177 10.7555 21.7677C10.5758 21.6176 10.4544 21.4092 10.4125 21.1787L10.0162 19H24.5163C25.2188 18.9999 25.8991 18.7532 26.4384 18.303C26.9777 17.8527 27.3419 17.2275 27.4675 16.5362L28.9875 8.17875C29.0132 8.0343 29.0069 7.88596 28.9688 7.74424C28.9308 7.60253 28.8621 7.47092 28.7675 7.35875ZM13 25.5C13 25.7967 12.912 26.0867 12.7472 26.3334C12.5824 26.58 12.3481 26.7723 12.074 26.8858C11.7999 26.9993 11.4983 27.0291 11.2074 26.9712C10.9164 26.9133 10.6491 26.7704 10.4393 26.5607C10.2296 26.3509 10.0867 26.0836 10.0288 25.7926C9.97094 25.5017 10.0006 25.2001 10.1142 24.926C10.2277 24.6519 10.42 24.4176 10.6666 24.2528C10.9133 24.088 11.2033 24 11.5 24C11.8978 24 12.2794 24.158 12.5607 24.4393C12.842 24.7206 13 25.1022 13 25.5ZM25 25.5C25 25.7967 24.912 26.0867 24.7472 26.3334C24.5824 26.58 24.3481 26.7723 24.074 26.8858C23.7999 26.9993 23.4983 27.0291 23.2074 26.9712C22.9164 26.9133 22.6491 26.7704 22.4393 26.5607C22.2296 26.3509 22.0867 26.0836 22.0288 25.7926C21.9709 25.5017 22.0007 25.2001 22.1142 24.926C22.2277 24.6519 22.42 24.4176 22.6666 24.2528C22.9133 24.088 23.2033 24 23.5 24C23.8978 24 24.2794 24.158 24.5607 24.4393C24.842 24.7206 25 25.1022 25 25.5ZM25.5 16.1787C25.458 16.4098 25.3361 16.6187 25.1555 16.7689C24.975 16.919 24.7473 17.0008 24.5125 17H9.6525L8.19875 9H26.8013L25.5 16.1787Z" fill="#191919"/>
</g>
</svg>
