<svg width="16" height="16" viewBox="0 0 16 16" fill="none" xmlns="http://www.w3.org/2000/svg">
<g id="lock_24dp_E8EAED_FILL0_wght400_GRAD0_opsz24 1">
<path id="Vector" d="M4.00033 14.6665C3.63366 14.6665 3.31977 14.5359 3.05866 14.2748C2.79755 14.0137 2.66699 13.6998 2.66699 13.3332V6.6665C2.66699 6.29984 2.79755 5.98595 3.05866 5.72484C3.31977 5.46373 3.63366 5.33317 4.00033 5.33317H4.66699V3.99984C4.66699 3.07762 4.99199 2.2915 5.64199 1.6415C6.29199 0.991504 7.0781 0.666504 8.00033 0.666504C8.92255 0.666504 9.70866 0.991504 10.3587 1.6415C11.0087 2.2915 11.3337 3.07762 11.3337 3.99984V5.33317H12.0003C12.367 5.33317 12.6809 5.46373 12.942 5.72484C13.2031 5.98595 13.3337 6.29984 13.3337 6.6665V13.3332C13.3337 13.6998 13.2031 14.0137 12.942 14.2748C12.6809 14.5359 12.367 14.6665 12.0003 14.6665H4.00033ZM4.00033 13.3332H12.0003V6.6665H4.00033V13.3332ZM8.00033 11.3332C8.36699 11.3332 8.68088 11.2026 8.94199 10.9415C9.2031 10.6804 9.33366 10.3665 9.33366 9.99984C9.33366 9.63317 9.2031 9.31928 8.94199 9.05817C8.68088 8.79706 8.36699 8.6665 8.00033 8.6665C7.63366 8.6665 7.31977 8.79706 7.05866 9.05817C6.79755 9.31928 6.66699 9.63317 6.66699 9.99984C6.66699 10.3665 6.79755 10.6804 7.05866 10.9415C7.31977 11.2026 7.63366 11.3332 8.00033 11.3332ZM6.00033 5.33317H10.0003V3.99984C10.0003 3.44428 9.80588 2.97206 9.41699 2.58317C9.0281 2.19428 8.55588 1.99984 8.00033 1.99984C7.44477 1.99984 6.97255 2.19428 6.58366 2.58317C6.19477 2.97206 6.00033 3.44428 6.00033 3.99984V5.33317Z" fill="#0C0D0E"/>
</g>
</svg>
