<svg width="109" height="32" viewBox="0 0 109 32" fill="none" xmlns="http://www.w3.org/2000/svg">
<g id="Group 1321314595">
<g id="Group 33">
<path id="Vector" d="M106.272 26.3592V23.3884L104.425 19.1475H105.369L106.702 22.3597H106.754L108.108 19.1475H109L107.164 23.3884V26.3592H106.272Z" fill="#191919"/>
<path id="Vector_2" d="M99.7871 26.3592V19.1475H101.812C102.33 19.1475 102.729 19.2384 103.009 19.4204C103.288 19.6024 103.484 19.8438 103.596 20.1447C103.708 20.4386 103.764 20.7746 103.764 21.1525C103.764 21.6634 103.68 22.0902 103.512 22.4332C103.351 22.7761 103.131 23.0245 102.851 23.1785L104.079 26.3592H103.135L102.012 23.4619H100.679V26.3592H99.7871ZM100.679 22.6851H101.76C102.152 22.6851 102.431 22.5556 102.599 22.2967C102.774 22.0378 102.862 21.6808 102.862 21.226C102.862 20.946 102.827 20.7116 102.757 20.5226C102.694 20.3267 102.578 20.1797 102.41 20.0817C102.243 19.9838 101.994 19.9348 101.665 19.9348H100.679V22.6851Z" fill="#191919"/>
<path id="Vector_3" d="M96.226 26.4852C95.7083 26.4852 95.2746 26.3522 94.9248 26.0863C94.575 25.8133 94.3092 25.4039 94.1273 24.8581C93.9454 24.3052 93.8545 23.6054 93.8545 22.7586C93.8545 21.9118 93.9454 21.2155 94.1273 20.6696C94.3092 20.1167 94.575 19.7038 94.9248 19.4309C95.2746 19.158 95.7083 19.0215 96.226 19.0215C96.7437 19.0215 97.1774 19.158 97.5272 19.4309C97.877 19.7038 98.1393 20.1167 98.3142 20.6696C98.4961 21.2155 98.587 21.9118 98.587 22.7586C98.587 23.6054 98.4961 24.3052 98.3142 24.8581C98.1393 25.4039 97.877 25.8133 97.5272 26.0863C97.1774 26.3522 96.7437 26.4852 96.226 26.4852ZM96.226 25.7084C96.4639 25.7084 96.6702 25.6559 96.8451 25.5509C97.027 25.4389 97.1774 25.271 97.2963 25.047C97.4222 24.8231 97.5167 24.5466 97.5796 24.2177C97.6426 23.8818 97.6741 23.4829 97.6741 23.021V22.4751C97.6741 22.0203 97.6426 21.6249 97.5796 21.2889C97.5167 20.953 97.4222 20.6766 97.2963 20.4596C97.1774 20.2427 97.027 20.0817 96.8451 19.9768C96.6702 19.8648 96.4639 19.8088 96.226 19.8088C95.9881 19.8088 95.7783 19.8648 95.5964 19.9768C95.4145 20.0817 95.2606 20.2427 95.1347 20.4596C95.0158 20.6766 94.9248 20.953 94.8619 21.2889C94.7989 21.6249 94.7674 22.0203 94.7674 22.4751V23.021C94.7674 23.4829 94.7989 23.8818 94.8619 24.2177C94.9248 24.5466 95.0158 24.8231 95.1347 25.047C95.2606 25.271 95.4145 25.4389 95.5964 25.5509C95.7783 25.6559 95.9881 25.7084 96.226 25.7084Z" fill="#191919"/>
<path id="Vector_4" d="M90.9612 26.3592V19.9348H89.3242V19.1475H93.4901V19.9348H91.8531V26.3592H90.9612Z" fill="#191919"/>
<path id="Vector_5" d="M86.6619 26.4852C86.1302 26.4852 85.6965 26.3522 85.3607 26.0863C85.0319 25.8133 84.794 25.4004 84.6471 24.8476C84.5002 24.2947 84.4268 23.5949 84.4268 22.7481C84.4268 21.4674 84.6226 20.5261 85.0144 19.9243C85.4131 19.3224 86.0113 19.0215 86.8088 19.0215C87.2635 19.0215 87.6412 19.1195 87.942 19.3154C88.2429 19.5114 88.4667 19.8158 88.6136 20.2287C88.7675 20.6346 88.8445 21.1595 88.8445 21.8033H87.984C87.984 21.3764 87.9455 21.016 87.8686 20.7221C87.7916 20.4211 87.6622 20.1937 87.4803 20.0397C87.2984 19.8858 87.0571 19.8088 86.7563 19.8088C86.4555 19.8088 86.1966 19.9033 85.9798 20.0922C85.7699 20.2742 85.609 20.5646 85.4971 20.9635C85.3921 21.3554 85.3397 21.8698 85.3397 22.5066V23.0525C85.3397 23.6754 85.3887 24.1827 85.4866 24.5746C85.5915 24.9665 85.7454 25.2535 85.9483 25.4354C86.1512 25.6174 86.403 25.7084 86.7038 25.7084C86.9976 25.7084 87.239 25.6349 87.4279 25.4879C87.6167 25.3409 87.7567 25.124 87.8476 24.8371C87.9455 24.5431 87.9945 24.1722 87.9945 23.7243H88.834C88.834 24.3682 88.75 24.8931 88.5821 25.299C88.4142 25.7049 88.1694 26.0058 87.8476 26.2017C87.5258 26.3907 87.1306 26.4852 86.6619 26.4852Z" fill="#191919"/>
<path id="Vector_6" d="M82.3271 26.3592V19.1475H83.2191V26.3592H82.3271Z" fill="#191919"/>
<path id="Vector_7" d="M78.6802 26.3592L77.0957 19.1475H78.0191L78.9425 23.7139C78.9705 23.8468 78.9985 24.0008 79.0265 24.1757C79.0615 24.3507 79.0929 24.5292 79.1209 24.7111C79.1559 24.8861 79.1839 25.04 79.2049 25.173H79.2573C79.2713 25.089 79.2888 24.977 79.3098 24.8371C79.3378 24.6901 79.3658 24.5222 79.3938 24.3332C79.4287 24.1372 79.4672 23.9308 79.5092 23.7139L80.4326 19.1475H81.335L79.7505 26.3592H78.6802Z" fill="#191919"/>
<path id="Vector_8" d="M72.391 26.4852C71.8734 26.4852 71.4396 26.3522 71.0899 26.0863C70.7401 25.8133 70.4742 25.4039 70.2924 24.8581C70.1105 24.3052 70.0195 23.6054 70.0195 22.7586C70.0195 21.9118 70.1105 21.2155 70.2924 20.6696C70.4742 20.1167 70.7401 19.7038 71.0899 19.4309C71.4396 19.158 71.8734 19.0215 72.391 19.0215C72.9087 19.0215 73.3424 19.158 73.6922 19.4309C74.042 19.7038 74.3043 20.1167 74.4792 20.6696C74.6611 21.2155 74.7521 21.9118 74.7521 22.7586C74.7521 23.6054 74.6611 24.3052 74.4792 24.8581C74.3043 25.4039 74.042 25.8133 73.6922 26.0863C73.3424 26.3522 72.9087 26.4852 72.391 26.4852ZM72.391 25.7084C72.6289 25.7084 72.8353 25.6559 73.0101 25.5509C73.192 25.4389 73.3424 25.271 73.4614 25.047C73.5873 24.8231 73.6817 24.5466 73.7447 24.2177C73.8076 23.8818 73.8391 23.4829 73.8391 23.021V22.4751C73.8391 22.0203 73.8076 21.6249 73.7447 21.2889C73.6817 20.953 73.5873 20.6766 73.4614 20.4596C73.3424 20.2427 73.192 20.0817 73.0101 19.9768C72.8353 19.8648 72.6289 19.8088 72.391 19.8088C72.1532 19.8088 71.9433 19.8648 71.7614 19.9768C71.5795 20.0817 71.4256 20.2427 71.2997 20.4596C71.1808 20.6766 71.0899 20.953 71.0269 21.2889C70.9639 21.6249 70.9325 22.0203 70.9325 22.4751V23.021C70.9325 23.4829 70.9639 23.8818 71.0269 24.2177C71.0899 24.5466 71.1808 24.8231 71.2997 25.047C71.4256 25.271 71.5795 25.4389 71.7614 25.5509C71.9433 25.6559 72.1532 25.7084 72.391 25.7084Z" fill="#191919"/>
<path id="Vector_9" d="M67.1272 26.3592V19.9348H65.4902V19.1475H69.6561V19.9348H68.0191V26.3592H67.1272Z" fill="#191919"/>
<path id="Vector_10" d="M97.7686 15.9779V8.76611H99.5944C100.147 8.76611 100.598 8.89208 100.948 9.14402C101.298 9.38896 101.553 9.77737 101.714 10.3092C101.875 10.8341 101.955 11.5164 101.955 12.3562C101.955 13.196 101.871 13.8819 101.704 14.4137C101.543 14.9456 101.287 15.341 100.938 15.6C100.588 15.8519 100.133 15.9779 99.5734 15.9779H97.7686ZM98.6605 15.2011H99.4475C99.6923 15.2011 99.9127 15.1661 100.109 15.0961C100.304 15.0261 100.472 14.9001 100.612 14.7182C100.752 14.5362 100.857 14.2808 100.927 13.9519C101.004 13.6159 101.042 13.189 101.042 12.6712V12.1673C101.042 11.6494 101.008 11.2225 100.938 10.8866C100.868 10.5437 100.763 10.2742 100.623 10.0783C100.483 9.88234 100.315 9.74588 100.119 9.66889C99.9232 9.59191 99.6993 9.55342 99.4475 9.55342H98.6605V15.2011Z" fill="#191919"/>
<path id="Vector_11" d="M92.5381 15.9779V8.76611H94.5633C95.081 8.76611 95.4797 8.85709 95.7596 9.03905C96.0394 9.221 96.2353 9.46244 96.3472 9.76337C96.4591 10.0573 96.5151 10.3932 96.5151 10.7711C96.5151 11.282 96.4311 11.7089 96.2632 12.0518C96.1023 12.3947 95.882 12.6432 95.6022 12.7971L96.8299 15.9779H95.8855L94.7627 13.0806H93.43V15.9779H92.5381ZM93.43 12.3038H94.5108C94.9026 12.3038 95.1824 12.1743 95.3503 11.9153C95.5252 11.6564 95.6127 11.2995 95.6127 10.8446C95.6127 10.5647 95.5777 10.3302 95.5077 10.1413C95.4448 9.94533 95.3293 9.79836 95.1614 9.70039C94.9935 9.60241 94.7452 9.55342 94.4164 9.55342H93.43V12.3038Z" fill="#191919"/>
<path id="Vector_12" d="M87.1387 15.9779L88.8911 8.76611H89.9614L91.7243 15.9779H90.8009L90.3287 14.0253H88.4923L88.0306 15.9779H87.1387ZM88.6392 13.259H90.1818L89.6466 10.8971C89.6326 10.8271 89.6151 10.7501 89.5941 10.6662C89.5801 10.5752 89.5626 10.4807 89.5417 10.3827C89.5207 10.2777 89.5032 10.1798 89.4892 10.0888C89.4752 9.99082 89.4577 9.90334 89.4367 9.82636H89.3843C89.3703 9.92433 89.3493 10.0398 89.3213 10.1728C89.3003 10.2987 89.2758 10.4282 89.2478 10.5612C89.2269 10.6871 89.2024 10.7991 89.1744 10.8971L88.6392 13.259Z" fill="#191919"/>
<path id="Vector_13" d="M81.8493 15.9779L80.6006 8.76611H81.503L82.1746 13.0596C82.2166 13.3535 82.248 13.5949 82.269 13.7839C82.29 13.9659 82.304 14.1093 82.311 14.2143C82.325 14.3193 82.332 14.3997 82.332 14.4557H82.3845C82.3915 14.4137 82.402 14.3403 82.4159 14.2353C82.4299 14.1303 82.4474 14.0078 82.4684 13.8679C82.4894 13.7209 82.5104 13.5774 82.5314 13.4375C82.5594 13.2905 82.5803 13.1645 82.5943 13.0596L83.3918 8.76611H84.3257L85.0183 13.0596C85.0463 13.2135 85.0673 13.371 85.0813 13.532C85.1023 13.6929 85.1197 13.8504 85.1337 14.0043C85.1547 14.1583 85.1687 14.3088 85.1757 14.4557H85.2387C85.2387 14.4137 85.2457 14.3403 85.2597 14.2353C85.2736 14.1303 85.2911 14.0113 85.3121 13.8784C85.3331 13.7384 85.3541 13.5984 85.3751 13.4585C85.4031 13.3115 85.424 13.1785 85.438 13.0596L86.2146 8.76611H87.0645L85.6689 15.9779H84.735L84.0214 11.6844C83.9865 11.4535 83.955 11.247 83.927 11.0651C83.906 10.8761 83.8885 10.7186 83.8745 10.5927C83.8675 10.4597 83.8605 10.3617 83.8535 10.2987H83.8011C83.7941 10.3617 83.7766 10.4772 83.7486 10.6452C83.7206 10.8061 83.6926 10.9846 83.6647 11.1805C83.6367 11.3695 83.6087 11.5374 83.5807 11.6844L82.7832 15.9779H81.8493Z" fill="#191919"/>
<path id="Vector_14" d="M75.9023 15.9779V8.76611H77.9276C78.4452 8.76611 78.844 8.85709 79.1238 9.03905C79.4036 9.221 79.5995 9.46244 79.7114 9.76337C79.8234 10.0573 79.8793 10.3932 79.8793 10.7711C79.8793 11.282 79.7954 11.7089 79.6275 12.0518C79.4666 12.3947 79.2462 12.6432 78.9664 12.7971L80.1941 15.9779H79.2497L78.1269 13.0806H76.7943V15.9779H75.9023ZM76.7943 12.3038H77.8751C78.2669 12.3038 78.5467 12.1743 78.7146 11.9153C78.8895 11.6564 78.9769 11.2995 78.9769 10.8446C78.9769 10.5647 78.9419 10.3302 78.872 10.1413C78.809 9.94533 78.6936 9.79836 78.5257 9.70039C78.3578 9.60241 78.1095 9.55342 77.7807 9.55342H76.7943V12.3038Z" fill="#191919"/>
<path id="Vector_15" d="M72.3403 16.1038C71.8226 16.1038 71.3889 15.9709 71.0391 15.7049C70.6893 15.432 70.4235 15.0226 70.2416 14.4767C70.0597 13.9239 69.9688 13.224 69.9688 12.3772C69.9688 11.5304 70.0597 10.8341 70.2416 10.2882C70.4235 9.73537 70.6893 9.32247 71.0391 9.04954C71.3889 8.7766 71.8226 8.64014 72.3403 8.64014C72.8579 8.64014 73.2917 8.7766 73.6414 9.04954C73.9912 9.32247 74.2536 9.73537 74.4284 10.2882C74.6103 10.8341 74.7013 11.5304 74.7013 12.3772C74.7013 13.224 74.6103 13.9239 74.4284 14.4767C74.2536 15.0226 73.9912 15.432 73.6414 15.7049C73.2917 15.9709 72.8579 16.1038 72.3403 16.1038ZM72.3403 15.327C72.5781 15.327 72.7845 15.2745 72.9594 15.1696C73.1413 15.0576 73.2917 14.8896 73.4106 14.6657C73.5365 14.4417 73.6309 14.1653 73.6939 13.8364C73.7569 13.5005 73.7883 13.1016 73.7883 12.6397V12.0938C73.7883 11.6389 73.7569 11.2435 73.6939 10.9076C73.6309 10.5717 73.5365 10.2952 73.4106 10.0783C73.2917 9.86134 73.1413 9.70038 72.9594 9.5954C72.7845 9.48343 72.5781 9.42745 72.3403 9.42745C72.1024 9.42745 71.8925 9.48343 71.7107 9.5954C71.5288 9.70038 71.3749 9.86134 71.2489 10.0783C71.13 10.2952 71.0391 10.5717 70.9761 10.9076C70.9132 11.2435 70.8817 11.6389 70.8817 12.0938V12.6397C70.8817 13.1016 70.9132 13.5005 70.9761 13.8364C71.0391 14.1653 71.13 14.4417 71.2489 14.6657C71.3749 14.8896 71.5288 15.0576 71.7107 15.1696C71.8925 15.2745 72.1024 15.327 72.3403 15.327Z" fill="#191919"/>
<path id="Vector_16" d="M65.9619 15.9779V8.76611H69.1939V9.55342H66.8539V11.9888H68.8686V12.7761H66.8539V15.9779H65.9619Z" fill="#191919"/>
</g>
<g id="Group 31">
<path id="Vector_17" d="M51.5909 0.0117188H58.635L51.9224 32.0001H41.6462L34.9336 0.0117188H42.0192L46.7843 24.3354L51.5909 0.0117188Z" fill="#191919"/>
<g id="Subtract">
<path d="M33.9063 0.0100986H15.6761V0.0115832L14.9272 0.0115833L16.3341 6.64256L21.8016 6.63675C21.8292 7.54921 21.843 9.09435 21.843 10.1893V14.0608C21.843 16.0943 21.8292 17.9583 21.8016 19.6529C21.8016 21.3214 21.7877 22.8856 21.7601 24.3455C21.7601 25.7794 21.7463 27.122 21.7187 28.3734C21.6911 29.5987 21.6634 30.7849 21.6358 31.932H28.5971C28.5971 31.4628 28.5833 31.0196 28.5556 30.6024V21.9601C28.5556 19.1966 28.5694 16.6287 28.5971 14.2563C28.6247 11.8578 28.6721 8.96353 28.7274 6.64326H33.9063V0.0100986Z" fill="#191919"/>
<path d="M7.54137 0.0115835L13.9337 0.0115833V6.6411H6.71264V12.7209H13.9098V19.3689H6.71264V23.2403C6.74027 24.5178 6.75408 25.717 6.75408 26.838C6.7817 27.9591 6.80933 28.9758 6.83695 29.8883C6.86458 30.7747 6.8922 31.4786 6.91983 32H0C0.0276241 31.5828 0.0414358 30.8789 0.0414358 29.8883C0.0690599 28.8715 0.0828721 27.6853 0.0828721 26.3297V6.81596C0.0828721 5.32995 0.0690599 4.00036 0.0414358 2.82719C0.0414358 2.40587 0.0449986 2.01145 0.0482856 1.64756C0.0541515 0.998175 0.0591393 0.445991 0.0414358 0.0115878H3.60494C4.46601 -0.00570219 5.321 -6.01834e-05 6.1941 0.00570126C6.63746 0.00862699 7.0855 0.0115835 7.54137 0.0115835Z" fill="#191919"/>
</g>
</g>
</g>
</svg>
