<svg width="109" height="32" viewBox="0 0 109 32" fill="none" xmlns="http://www.w3.org/2000/svg">
<g id="Group 1321314596">
<g id="Group 33">
<path id="Vector" d="M106.272 26.3593V23.3886L104.425 19.1476H105.369L106.702 22.3598H106.754L108.108 19.1476H109L107.164 23.3886V26.3593H106.272Z" fill="white"/>
<path id="Vector_2" d="M99.7871 26.3593V19.1476H101.812C102.33 19.1476 102.729 19.2386 103.009 19.4205C103.288 19.6025 103.484 19.8439 103.596 20.1448C103.708 20.4388 103.764 20.7747 103.764 21.1526C103.764 21.6635 103.68 22.0904 103.512 22.4333C103.351 22.7762 103.131 23.0246 102.851 23.1786L104.079 26.3593H103.135L102.012 23.462H100.679V26.3593H99.7871ZM100.679 22.6852H101.76C102.152 22.6852 102.431 22.5558 102.599 22.2968C102.774 22.0379 102.862 21.681 102.862 21.2261C102.862 20.9461 102.827 20.7117 102.757 20.5227C102.694 20.3268 102.578 20.1798 102.41 20.0819C102.243 19.9839 101.994 19.9349 101.665 19.9349H100.679V22.6852Z" fill="white"/>
<path id="Vector_3" d="M96.226 26.4852C95.7083 26.4852 95.2746 26.3522 94.9248 26.0863C94.575 25.8133 94.3092 25.4039 94.1273 24.8581C93.9454 24.3052 93.8545 23.6054 93.8545 22.7586C93.8545 21.9118 93.9454 21.2155 94.1273 20.6696C94.3092 20.1167 94.575 19.7038 94.9248 19.4309C95.2746 19.158 95.7083 19.0215 96.226 19.0215C96.7437 19.0215 97.1774 19.158 97.5272 19.4309C97.877 19.7038 98.1393 20.1167 98.3142 20.6696C98.4961 21.2155 98.587 21.9118 98.587 22.7586C98.587 23.6054 98.4961 24.3052 98.3142 24.8581C98.1393 25.4039 97.877 25.8133 97.5272 26.0863C97.1774 26.3522 96.7437 26.4852 96.226 26.4852ZM96.226 25.7084C96.4639 25.7084 96.6702 25.6559 96.8451 25.5509C97.027 25.4389 97.1774 25.271 97.2963 25.047C97.4222 24.8231 97.5167 24.5466 97.5796 24.2177C97.6426 23.8818 97.6741 23.4829 97.6741 23.021V22.4751C97.6741 22.0203 97.6426 21.6249 97.5796 21.2889C97.5167 20.953 97.4222 20.6766 97.2963 20.4596C97.1774 20.2427 97.027 20.0817 96.8451 19.9768C96.6702 19.8648 96.4639 19.8088 96.226 19.8088C95.9881 19.8088 95.7783 19.8648 95.5964 19.9768C95.4145 20.0817 95.2606 20.2427 95.1347 20.4596C95.0158 20.6766 94.9248 20.953 94.8619 21.2889C94.7989 21.6249 94.7674 22.0203 94.7674 22.4751V23.021C94.7674 23.4829 94.7989 23.8818 94.8619 24.2177C94.9248 24.5466 95.0158 24.8231 95.1347 25.047C95.2606 25.271 95.4145 25.4389 95.5964 25.5509C95.7783 25.6559 95.9881 25.7084 96.226 25.7084Z" fill="white"/>
<path id="Vector_4" d="M90.9612 26.3593V19.9349H89.3242V19.1476H93.4901V19.9349H91.8531V26.3593H90.9612Z" fill="white"/>
<path id="Vector_5" d="M86.6619 26.4852C86.1302 26.4852 85.6965 26.3522 85.3607 26.0863C85.0319 25.8133 84.794 25.4004 84.6471 24.8476C84.5002 24.2947 84.4268 23.5949 84.4268 22.7481C84.4268 21.4674 84.6226 20.5261 85.0144 19.9243C85.4131 19.3224 86.0113 19.0215 86.8088 19.0215C87.2635 19.0215 87.6412 19.1195 87.942 19.3154C88.2429 19.5114 88.4667 19.8158 88.6136 20.2287C88.7675 20.6346 88.8445 21.1595 88.8445 21.8033H87.984C87.984 21.3764 87.9455 21.016 87.8686 20.7221C87.7916 20.4211 87.6622 20.1937 87.4803 20.0397C87.2984 19.8858 87.0571 19.8088 86.7563 19.8088C86.4555 19.8088 86.1966 19.9033 85.9798 20.0922C85.7699 20.2742 85.609 20.5646 85.4971 20.9635C85.3921 21.3554 85.3397 21.8698 85.3397 22.5066V23.0525C85.3397 23.6754 85.3887 24.1827 85.4866 24.5746C85.5915 24.9665 85.7454 25.2535 85.9483 25.4354C86.1512 25.6174 86.403 25.7084 86.7038 25.7084C86.9976 25.7084 87.239 25.6349 87.4279 25.4879C87.6167 25.3409 87.7567 25.124 87.8476 24.8371C87.9455 24.5431 87.9945 24.1722 87.9945 23.7243H88.834C88.834 24.3682 88.75 24.8931 88.5821 25.299C88.4142 25.7049 88.1694 26.0058 87.8476 26.2017C87.5258 26.3907 87.1306 26.4852 86.6619 26.4852Z" fill="white"/>
<path id="Vector_6" d="M82.3271 26.3593V19.1476H83.2191V26.3593H82.3271Z" fill="white"/>
<path id="Vector_7" d="M78.6802 26.3593L77.0957 19.1476H78.0191L78.9425 23.714C78.9705 23.8469 78.9985 24.0009 79.0265 24.1759C79.0615 24.3508 79.0929 24.5293 79.1209 24.7112C79.1559 24.8862 79.1839 25.0402 79.2049 25.1731H79.2573C79.2713 25.0891 79.2888 24.9772 79.3098 24.8372C79.3378 24.6902 79.3658 24.5223 79.3938 24.3333C79.4287 24.1374 79.4672 23.9309 79.5092 23.714L80.4326 19.1476H81.335L79.7505 26.3593H78.6802Z" fill="white"/>
<path id="Vector_8" d="M72.391 26.4852C71.8734 26.4852 71.4396 26.3522 71.0899 26.0863C70.7401 25.8133 70.4742 25.4039 70.2924 24.8581C70.1105 24.3052 70.0195 23.6054 70.0195 22.7586C70.0195 21.9118 70.1105 21.2155 70.2924 20.6696C70.4742 20.1167 70.7401 19.7038 71.0899 19.4309C71.4396 19.158 71.8734 19.0215 72.391 19.0215C72.9087 19.0215 73.3424 19.158 73.6922 19.4309C74.042 19.7038 74.3043 20.1167 74.4792 20.6696C74.6611 21.2155 74.7521 21.9118 74.7521 22.7586C74.7521 23.6054 74.6611 24.3052 74.4792 24.8581C74.3043 25.4039 74.042 25.8133 73.6922 26.0863C73.3424 26.3522 72.9087 26.4852 72.391 26.4852ZM72.391 25.7084C72.6289 25.7084 72.8353 25.6559 73.0101 25.5509C73.192 25.4389 73.3424 25.271 73.4614 25.047C73.5873 24.8231 73.6817 24.5466 73.7447 24.2177C73.8076 23.8818 73.8391 23.4829 73.8391 23.021V22.4751C73.8391 22.0203 73.8076 21.6249 73.7447 21.2889C73.6817 20.953 73.5873 20.6766 73.4614 20.4596C73.3424 20.2427 73.192 20.0817 73.0101 19.9768C72.8353 19.8648 72.6289 19.8088 72.391 19.8088C72.1532 19.8088 71.9433 19.8648 71.7614 19.9768C71.5795 20.0817 71.4256 20.2427 71.2997 20.4596C71.1808 20.6766 71.0899 20.953 71.0269 21.2889C70.9639 21.6249 70.9325 22.0203 70.9325 22.4751V23.021C70.9325 23.4829 70.9639 23.8818 71.0269 24.2177C71.0899 24.5466 71.1808 24.8231 71.2997 25.047C71.4256 25.271 71.5795 25.4389 71.7614 25.5509C71.9433 25.6559 72.1532 25.7084 72.391 25.7084Z" fill="white"/>
<path id="Vector_9" d="M67.1272 26.3593V19.9349H65.4902V19.1476H69.6561V19.9349H68.0191V26.3593H67.1272Z" fill="white"/>
<path id="Vector_10" d="M97.7686 15.9781V8.76636H99.5944C100.147 8.76636 100.598 8.89233 100.948 9.14427C101.298 9.38921 101.553 9.77761 101.714 10.3095C101.875 10.8344 101.955 11.5167 101.955 12.3565C101.955 13.1963 101.871 13.8821 101.704 14.414C101.543 14.9459 101.287 15.3413 100.938 15.6002C100.588 15.8521 100.133 15.9781 99.5734 15.9781H97.7686ZM98.6605 15.2013H99.4475C99.6923 15.2013 99.9127 15.1663 100.109 15.0963C100.304 15.0263 100.472 14.9004 100.612 14.7184C100.752 14.5365 100.857 14.281 100.927 13.9521C101.004 13.6162 101.042 13.1893 101.042 12.6714V12.1675C101.042 11.6497 101.008 11.2228 100.938 10.8868C100.868 10.5439 100.763 10.2745 100.623 10.0785C100.483 9.88259 100.315 9.74612 100.119 9.66914C99.9232 9.59216 99.6993 9.55367 99.4475 9.55367H98.6605V15.2013Z" fill="white"/>
<path id="Vector_11" d="M92.5381 15.9781V8.76636H94.5633C95.081 8.76636 95.4797 8.85734 95.7596 9.03929C96.0394 9.22125 96.2353 9.46269 96.3472 9.76362C96.4591 10.0575 96.5151 10.3935 96.5151 10.7714C96.5151 11.2822 96.4311 11.7091 96.2632 12.0521C96.1023 12.395 95.882 12.6434 95.6022 12.7974L96.8299 15.9781H95.8855L94.7627 13.0808H93.43V15.9781H92.5381ZM93.43 12.304H94.5108C94.9026 12.304 95.1824 12.1745 95.3503 11.9156C95.5252 11.6567 95.6127 11.2997 95.6127 10.8449C95.6127 10.5649 95.5777 10.3305 95.5077 10.1415C95.4448 9.94557 95.3293 9.79861 95.1614 9.70063C94.9935 9.60265 94.7452 9.55367 94.4164 9.55367H93.43V12.304Z" fill="white"/>
<path id="Vector_12" d="M87.1387 15.9781L88.8911 8.76636H89.9614L91.7243 15.9781H90.8009L90.3287 14.0256H88.4923L88.0306 15.9781H87.1387ZM88.6392 13.2593H90.1818L89.6466 10.8973C89.6326 10.8274 89.6151 10.7504 89.5941 10.6664C89.5801 10.5754 89.5626 10.4809 89.5417 10.383C89.5207 10.278 89.5032 10.18 89.4892 10.089C89.4752 9.99106 89.4577 9.90358 89.4367 9.8266H89.3843C89.3703 9.92458 89.3493 10.04 89.3213 10.173C89.3003 10.299 89.2758 10.4285 89.2478 10.5614C89.2269 10.6874 89.2024 10.7994 89.1744 10.8973L88.6392 13.2593Z" fill="white"/>
<path id="Vector_13" d="M81.8493 15.9781L80.6006 8.76636H81.503L82.1746 13.0598C82.2166 13.3537 82.248 13.5952 82.269 13.7841C82.29 13.9661 82.304 14.1096 82.311 14.2145C82.325 14.3195 82.332 14.4 82.332 14.456H82.3845C82.3915 14.414 82.402 14.3405 82.4159 14.2355C82.4299 14.1306 82.4474 14.0081 82.4684 13.8681C82.4894 13.7212 82.5104 13.5777 82.5314 13.4377C82.5594 13.2908 82.5803 13.1648 82.5943 13.0598L83.3918 8.76636H84.3257L85.0183 13.0598C85.0463 13.2138 85.0673 13.3712 85.0813 13.5322C85.1023 13.6932 85.1197 13.8506 85.1337 14.0046C85.1547 14.1585 85.1687 14.309 85.1757 14.456H85.2387C85.2387 14.414 85.2457 14.3405 85.2597 14.2355C85.2736 14.1306 85.2911 14.0116 85.3121 13.8786C85.3331 13.7387 85.3541 13.5987 85.3751 13.4587C85.4031 13.3118 85.424 13.1788 85.438 13.0598L86.2146 8.76636H87.0645L85.6689 15.9781H84.735L84.0214 11.6846C83.9865 11.4537 83.955 11.2473 83.927 11.0653C83.906 10.8763 83.8885 10.7189 83.8745 10.5929C83.8675 10.4599 83.8605 10.362 83.8535 10.299H83.8011C83.7941 10.362 83.7766 10.4774 83.7486 10.6454C83.7206 10.8064 83.6926 10.9848 83.6647 11.1808C83.6367 11.3697 83.6087 11.5377 83.5807 11.6846L82.7832 15.9781H81.8493Z" fill="white"/>
<path id="Vector_14" d="M75.9023 15.9781V8.76636H77.9276C78.4452 8.76636 78.844 8.85734 79.1238 9.03929C79.4036 9.22125 79.5995 9.46269 79.7114 9.76362C79.8234 10.0575 79.8793 10.3935 79.8793 10.7714C79.8793 11.2822 79.7954 11.7091 79.6275 12.0521C79.4666 12.395 79.2462 12.6434 78.9664 12.7974L80.1941 15.9781H79.2497L78.1269 13.0808H76.7943V15.9781H75.9023ZM76.7943 12.304H77.8751C78.2669 12.304 78.5467 12.1745 78.7146 11.9156C78.8895 11.6567 78.9769 11.2997 78.9769 10.8449C78.9769 10.5649 78.9419 10.3305 78.872 10.1415C78.809 9.94557 78.6936 9.79861 78.5257 9.70063C78.3578 9.60265 78.1095 9.55367 77.7807 9.55367H76.7943V12.304Z" fill="white"/>
<path id="Vector_15" d="M72.3403 16.1041C71.8226 16.1041 71.3889 15.9711 71.0391 15.7052C70.6893 15.4322 70.4235 15.0228 70.2416 14.477C70.0597 13.9241 69.9688 13.2243 69.9688 12.3775C69.9688 11.5307 70.0597 10.8343 70.2416 10.2885C70.4235 9.73562 70.6893 9.32272 71.0391 9.04978C71.3889 8.77685 71.8226 8.64038 72.3403 8.64038C72.8579 8.64038 73.2917 8.77685 73.6414 9.04978C73.9912 9.32272 74.2536 9.73562 74.4284 10.2885C74.6103 10.8343 74.7013 11.5307 74.7013 12.3775C74.7013 13.2243 74.6103 13.9241 74.4284 14.477C74.2536 15.0228 73.9912 15.4322 73.6414 15.7052C73.2917 15.9711 72.8579 16.1041 72.3403 16.1041ZM72.3403 15.3273C72.5781 15.3273 72.7845 15.2748 72.9594 15.1698C73.1413 15.0578 73.2917 14.8899 73.4106 14.6659C73.5365 14.442 73.6309 14.1655 73.6939 13.8366C73.7569 13.5007 73.7883 13.1018 73.7883 12.6399V12.094C73.7883 11.6392 73.7569 11.2437 73.6939 10.9078C73.6309 10.5719 73.5365 10.2955 73.4106 10.0785C73.2917 9.86158 73.1413 9.70062 72.9594 9.59565C72.7845 9.48368 72.5781 9.42769 72.3403 9.42769C72.1024 9.42769 71.8925 9.48368 71.7107 9.59565C71.5288 9.70062 71.3749 9.86158 71.2489 10.0785C71.13 10.2955 71.0391 10.5719 70.9761 10.9078C70.9132 11.2437 70.8817 11.6392 70.8817 12.094V12.6399C70.8817 13.1018 70.9132 13.5007 70.9761 13.8366C71.0391 14.1655 71.13 14.442 71.2489 14.6659C71.3749 14.8899 71.5288 15.0578 71.7107 15.1698C71.8925 15.2748 72.1024 15.3273 72.3403 15.3273Z" fill="white"/>
<path id="Vector_16" d="M65.9619 15.9781V8.76636H69.1939V9.55367H66.8539V11.9891H68.8686V12.7764H66.8539V15.9781H65.9619Z" fill="white"/>
</g>
<g id="Group 31">
<path id="Vector_17" d="M51.5909 0.0115967H58.635L51.9224 32H41.6462L34.9336 0.0115967H42.0192L46.7843 24.3353L51.5909 0.0115967Z" fill="white"/>
<g id="Subtract">
<path d="M33.9063 0.0100986H15.6761V0.0115832L14.9272 0.0115833L16.3341 6.64256L21.8016 6.63675C21.8292 7.54921 21.843 9.09435 21.843 10.1893V14.0608C21.843 16.0943 21.8292 17.9583 21.8016 19.6529C21.8016 21.3214 21.7877 22.8856 21.7601 24.3455C21.7601 25.7794 21.7463 27.122 21.7187 28.3734C21.6911 29.5987 21.6634 30.7849 21.6358 31.932H28.5971C28.5971 31.4628 28.5833 31.0196 28.5556 30.6024V21.9601C28.5556 19.1966 28.5694 16.6287 28.5971 14.2563C28.6247 11.8578 28.6721 8.96353 28.7274 6.64326H33.9063V0.0100986Z" fill="white"/>
<path d="M7.54137 0.0115835L13.9337 0.0115833V6.6411H6.71264V12.7209H13.9098V19.3689H6.71264V23.2403C6.74027 24.5178 6.75408 25.717 6.75408 26.838C6.7817 27.9591 6.80933 28.9758 6.83695 29.8883C6.86458 30.7747 6.8922 31.4786 6.91983 32H0C0.0276241 31.5828 0.0414358 30.8789 0.0414358 29.8883C0.0690599 28.8715 0.0828721 27.6853 0.0828721 26.3297V6.81596C0.0828721 5.32995 0.0690599 4.00036 0.0414358 2.82719C0.0414358 2.40587 0.0449986 2.01145 0.0482856 1.64756C0.0541515 0.998175 0.0591393 0.445991 0.0414358 0.0115878H3.60494C4.46601 -0.00570219 5.321 -6.01834e-05 6.1941 0.00570126C6.63746 0.00862699 7.0855 0.0115835 7.54137 0.0115835Z" fill="white"/>
</g>
</g>
</g>
</svg>
