<svg width="55" height="55" viewBox="0 0 55 55" fill="none" xmlns="http://www.w3.org/2000/svg">
<g id="Frame">
<path id="Vector" d="M27.4999 17.1875C25.4602 17.1875 23.4664 17.7924 21.7705 18.9255C20.0747 20.0587 18.7529 21.6693 17.9724 23.5536C17.1918 25.438 16.9876 27.5115 17.3855 29.5119C17.7834 31.5123 18.7656 33.3499 20.2078 34.7921C21.6501 36.2343 23.4876 37.2165 25.488 37.6144C27.4884 38.0123 29.5619 37.8081 31.4463 37.0275C33.3306 36.247 34.9412 34.9252 36.0744 33.2294C37.2075 31.5335 37.8124 29.5397 37.8124 27.5C37.8095 24.7659 36.7221 22.1445 34.7888 20.2111C32.8554 18.2778 30.234 17.1904 27.4999 17.1875ZM27.4999 34.375C26.1401 34.375 24.8109 33.9718 23.6803 33.2164C22.5497 32.461 21.6685 31.3872 21.1482 30.131C20.6278 28.8747 20.4917 27.4924 20.757 26.1588C21.0222 24.8252 21.677 23.6002 22.6385 22.6387C23.6 21.6772 24.825 21.0224 26.1586 20.7571C27.4922 20.4919 28.8746 20.628 30.1308 21.1484C31.3871 21.6687 32.4608 22.5499 33.2162 23.6805C33.9717 24.8111 34.3749 26.1403 34.3749 27.5C34.3749 29.3234 33.6505 31.0721 32.3612 32.3614C31.0719 33.6507 29.3232 34.375 27.4999 34.375ZM51.1198 23.0334C51.0719 22.7914 50.9725 22.5625 50.8283 22.3623C50.6841 22.1621 50.4985 21.9953 50.284 21.8733L43.8753 18.2209L43.8495 10.9979C43.8487 10.7491 43.7939 10.5035 43.689 10.278C43.584 10.0525 43.4313 9.8524 43.2415 9.69164C40.9167 7.72517 38.2396 6.21819 35.3524 5.25082C35.125 5.17386 34.8841 5.14538 34.645 5.16722C34.406 5.18905 34.1742 5.26071 33.9645 5.37758L27.4999 8.99125L21.0288 5.37113C20.819 5.2536 20.5869 5.1814 20.3474 5.1592C20.108 5.13699 19.8666 5.16528 19.6387 5.24223C16.7537 6.21667 14.0796 7.7294 11.7583 9.70024C11.5687 9.86076 11.4162 10.0605 11.3112 10.2856C11.2063 10.5107 11.1513 10.7559 11.1503 11.0043L11.118 18.2338L4.70923 21.8862C4.49482 22.0082 4.30921 22.175 4.165 22.3752C4.02079 22.5754 3.92137 22.8043 3.87349 23.0463C3.28696 25.9937 3.28696 29.0278 3.87349 31.9752C3.92137 32.2173 4.02079 32.4462 4.165 32.6463C4.30921 32.8465 4.49482 33.0133 4.70923 33.1354L11.118 36.7877L11.1438 44.0108C11.1446 44.2595 11.1994 44.5052 11.3043 44.7307C11.4093 44.9562 11.562 45.1563 11.7518 45.317C14.0766 47.2835 16.7537 48.7905 19.6409 49.7579C19.8682 49.8348 20.1092 49.8633 20.3482 49.8415C20.5873 49.8196 20.8191 49.748 21.0288 49.6311L27.4999 46.0088L33.971 49.6289C34.227 49.7716 34.5157 49.8456 34.8088 49.8438C34.9966 49.8437 35.183 49.8133 35.361 49.7536C38.2457 48.7804 40.9197 47.2692 43.2415 45.2998C43.431 45.1393 43.5835 44.9396 43.6885 44.7145C43.7935 44.4893 43.8484 44.2441 43.8495 43.9957L43.8817 36.7663L50.2905 33.1139C50.5049 32.9918 50.6905 32.8251 50.8347 32.6249C50.9789 32.4247 51.0784 32.1958 51.1262 31.9538C51.7095 29.0087 51.7073 25.9776 51.1198 23.0334ZM47.8971 30.5336L41.759 34.0248C41.4901 34.1778 41.2674 34.4004 41.1145 34.6694C40.9899 34.8842 40.8588 35.112 40.7256 35.3268C40.5551 35.5977 40.4643 35.9112 40.4635 36.2313L40.4313 43.16C38.7815 44.4556 36.9434 45.4917 34.9807 46.2323L28.7889 42.7819C28.5319 42.6396 28.2427 42.5657 27.9489 42.567H27.9081C27.6481 42.567 27.386 42.567 27.126 42.567C26.8186 42.5594 26.5146 42.6335 26.2452 42.7819L20.0491 46.2409C18.0822 45.5059 16.2391 44.475 14.5835 43.1836L14.5598 36.2657C14.5588 35.9449 14.468 35.6309 14.2977 35.359C14.1645 35.1442 14.0335 34.9293 13.911 34.7016C13.7591 34.4285 13.5365 34.2014 13.2665 34.0442L7.12193 30.5444C6.80396 28.533 6.80396 26.4842 7.12193 24.4729L13.2493 20.9752C13.5182 20.8223 13.7409 20.5996 13.8938 20.3307C14.0184 20.1159 14.1495 19.8881 14.2827 19.6733C14.4532 19.4024 14.544 19.0889 14.5448 18.7688L14.577 11.8401C16.2269 10.5445 18.0649 9.50842 20.0276 8.76781L26.2108 12.2182C26.4799 12.3674 26.7841 12.4416 27.0917 12.433C27.3516 12.433 27.6137 12.433 27.8737 12.433C28.1812 12.4407 28.4851 12.3666 28.7545 12.2182L34.9506 8.75922C36.9175 9.49415 38.7606 10.5251 40.4163 11.8164L40.4399 18.7344C40.441 19.0552 40.5318 19.3692 40.702 19.6411C40.8352 19.8559 40.9663 20.0707 41.0887 20.2985C41.2406 20.5716 41.4632 20.7987 41.7333 20.9559L47.8778 24.4557C48.2 26.4686 48.2036 28.5196 47.8885 30.5336H47.8971Z" fill="#EC5B2A"/>
</g>
</svg>
