<svg width="55" height="55" viewBox="0 0 55 55" fill="none" xmlns="http://www.w3.org/2000/svg">
<g id="Frame">
<path id="Vector" d="M27.5 18.9062C25.8003 18.9062 24.1388 19.4103 22.7256 20.3546C21.3123 21.2989 20.2108 22.641 19.5604 24.2113C18.91 25.7816 18.7398 27.5095 19.0714 29.1766C19.403 30.8436 20.2214 32.3748 21.4233 33.5767C22.6252 34.7786 24.1564 35.597 25.8234 35.9286C27.4905 36.2602 29.2184 36.09 30.7887 35.4396C32.359 34.7892 33.7011 33.6877 34.6454 32.2744C35.5897 30.8612 36.0938 29.1997 36.0938 27.5C36.0938 25.2208 35.1883 23.0349 33.5767 21.4233C31.9651 19.8117 29.7792 18.9062 27.5 18.9062ZM27.5 32.6562C26.4802 32.6562 25.4833 32.3538 24.6353 31.7873C23.7874 31.2207 23.1265 30.4154 22.7362 29.4732C22.346 28.531 22.2439 27.4943 22.4428 26.4941C22.6418 25.4939 23.1329 24.5751 23.854 23.854C24.5751 23.1329 25.4939 22.6418 26.4941 22.4428C27.4943 22.2439 28.531 22.346 29.4732 22.7362C30.4154 23.1265 31.2207 23.7874 31.7873 24.6353C32.3538 25.4833 32.6562 26.4802 32.6562 27.5C32.6562 28.8675 32.113 30.179 31.146 31.146C30.179 32.113 28.8675 32.6562 27.5 32.6562ZM51.5625 12.0312H3.4375C2.98166 12.0312 2.54449 12.2123 2.22216 12.5347C1.89983 12.857 1.71875 13.2942 1.71875 13.75V41.25C1.71875 41.7058 1.89983 42.143 2.22216 42.4653C2.54449 42.7877 2.98166 42.9688 3.4375 42.9688H51.5625C52.0183 42.9688 52.4555 42.7877 52.7778 42.4653C53.1002 42.143 53.2812 41.7058 53.2812 41.25V13.75C53.2812 13.2942 53.1002 12.857 52.7778 12.5347C52.4555 12.2123 52.0183 12.0312 51.5625 12.0312ZM41.6045 39.5312H13.3955C12.8184 37.5796 11.7623 35.8034 10.3232 34.3643C8.88413 32.9252 7.10788 31.8691 5.15625 31.292V23.708C7.10788 23.1309 8.88413 22.0748 10.3232 20.6357C11.7623 19.1966 12.8184 17.4204 13.3955 15.4688H41.6045C42.1815 17.4204 43.2377 19.1966 44.6768 20.6357C46.1159 22.0748 47.8921 23.1309 49.8438 23.708V31.292C47.8921 31.8691 46.1159 32.9252 44.6768 34.3643C43.2377 35.8034 42.1815 37.5796 41.6045 39.5312ZM49.8438 20.06C47.7822 19.1735 46.139 17.5303 45.2525 15.4688H49.8438V20.06ZM9.74746 15.4688C8.861 17.5303 7.21781 19.1735 5.15625 20.06V15.4688H9.74746ZM5.15625 34.94C7.21781 35.8265 8.861 37.4697 9.74746 39.5312H5.15625V34.94ZM45.2525 39.5312C46.139 37.4697 47.7822 35.8265 49.8438 34.94V39.5312H45.2525Z" fill="#EC5B2A"/>
</g>
</svg>
