<svg width="55" height="55" viewBox="0 0 55 55" fill="none" xmlns="http://www.w3.org/2000/svg">
<g id="Frame">
<path id="Vector" d="M42.109 18.9062C41.107 18.9051 40.1208 19.1556 39.2408 19.6346C38.9776 18.8198 38.5436 18.0706 37.9677 17.4371C37.3917 16.8035 36.6872 16.3002 35.9012 15.9607C35.1151 15.6213 34.2657 15.4536 33.4096 15.4688C32.5535 15.484 31.7106 15.6817 30.9371 16.0488V9.45312C30.9371 7.85768 30.3033 6.32758 29.1751 5.19944C28.047 4.07129 26.5169 3.4375 24.9215 3.4375C23.326 3.4375 21.7959 4.07129 20.6678 5.19944C19.5396 6.32758 18.9058 7.85768 18.9058 9.45312V26.6406L18.0851 25.3236C17.6883 24.6402 17.1607 24.0415 16.5326 23.5619C15.9044 23.0823 15.1879 22.7312 14.424 22.5285C12.8813 22.1191 11.2391 22.3394 9.85876 23.1408C8.47841 23.9422 7.47297 25.2592 7.06361 26.8019C6.65426 28.3447 6.87452 29.9868 7.67594 31.3672L8.67926 33.1354C16.072 46.1678 19.1314 51.5625 29.2183 51.5625C34.2308 51.5568 39.0364 49.5631 42.5808 46.0187C46.1252 42.4743 48.1189 37.6688 48.1246 32.6562V24.9219C48.1246 23.3264 47.4908 21.7963 46.3626 20.6682C45.2345 19.54 43.7044 18.9062 42.109 18.9062ZM44.6871 32.6562C44.6825 36.7574 43.0513 40.6893 40.1514 43.5893C37.2514 46.4893 33.3195 48.1204 29.2183 48.125C21.1338 48.125 18.9402 44.2578 11.6699 31.4359L10.6623 29.6592V29.6484C10.3201 29.0569 10.2269 28.3538 10.4029 27.6935C10.579 27.0332 11.0099 26.4698 11.6011 26.1271C11.9928 25.9003 12.4376 25.7817 12.8902 25.7834C13.3434 25.7827 13.7888 25.9015 14.1814 26.1278C14.5741 26.3542 14.9001 26.68 15.1267 27.0725C15.1355 27.0897 15.1455 27.1062 15.1568 27.1219L19.1679 33.5672C19.3659 33.8833 19.6613 34.1264 20.0096 34.2598C20.3578 34.3933 20.74 34.4098 21.0985 34.307C21.457 34.2042 21.7723 33.9875 21.9969 33.6897C22.2214 33.3919 22.343 33.0292 22.3433 32.6562V9.45312C22.3433 8.76936 22.6149 8.11361 23.0984 7.63012C23.5819 7.14662 24.2377 6.875 24.9215 6.875C25.6052 6.875 26.261 7.14662 26.7445 7.63012C27.228 8.11361 27.4996 8.76936 27.4996 9.45312V24.0625C27.4996 24.5183 27.6807 24.9555 28.003 25.2778C28.3253 25.6002 28.7625 25.7812 29.2183 25.7812C29.6742 25.7812 30.1113 25.6002 30.4337 25.2778C30.756 24.9555 30.9371 24.5183 30.9371 24.0625V21.4844C30.9371 20.8006 31.2087 20.1449 31.6922 19.6614C32.1757 19.1779 32.8314 18.9062 33.5152 18.9062C34.199 18.9062 34.8547 19.1779 35.3382 19.6614C35.8217 20.1449 36.0933 20.8006 36.0933 21.4844V25.7812C36.0933 26.2371 36.2744 26.6743 36.5967 26.9966C36.9191 27.3189 37.3562 27.5 37.8121 27.5C38.2679 27.5 38.7051 27.3189 39.0274 26.9966C39.3497 26.6743 39.5308 26.2371 39.5308 25.7812V24.9219C39.5308 24.2381 39.8024 23.5824 40.2859 23.0989C40.7694 22.6154 41.4252 22.3438 42.109 22.3438C42.7927 22.3438 43.4485 22.6154 43.932 23.0989C44.4155 23.5824 44.6871 24.2381 44.6871 24.9219V32.6562Z" fill="#EC5B2A"/>
</g>
</svg>
