<svg width="24" height="24" viewBox="0 0 24 24" fill="none" xmlns="http://www.w3.org/2000/svg">
<g id="Frame">
<path id="Vector" d="M21 14.5125L16.5853 12.5334L16.5684 12.5259C16.2815 12.4022 15.9681 12.3524 15.6569 12.381C15.3458 12.4097 15.0467 12.5159 14.7872 12.69C14.7508 12.7143 14.7158 12.7406 14.6822 12.7687L12.5906 14.55C11.3719 13.889 10.1128 12.6403 9.45094 11.4365L11.2378 9.31214C11.2665 9.27785 11.2932 9.24185 11.3175 9.20433C11.487 8.94572 11.5899 8.64922 11.617 8.34122C11.6442 8.03322 11.5948 7.72329 11.4731 7.43902C11.4702 7.43357 11.4677 7.42793 11.4656 7.42214L9.48751 2.99995C9.32513 2.63013 9.04801 2.32241 8.69716 2.12233C8.3463 1.92225 7.94035 1.84044 7.53938 1.88902C6.17848 2.06779 4.92918 2.73584 4.02482 3.76838C3.12046 4.80093 2.62288 6.12736 2.62501 7.49995C2.62501 15.1509 8.84907 21.375 16.5 21.375C17.8726 21.3771 19.199 20.8795 20.2316 19.9751C21.2641 19.0708 21.9322 17.8215 22.1109 16.4606C22.1595 16.0596 22.0777 15.6537 21.8776 15.3028C21.6775 14.9519 21.3698 14.6748 21 14.5125ZM16.5 19.125C13.418 19.1212 10.4633 17.8953 8.284 15.716C6.1047 13.5367 4.87873 10.582 4.87501 7.49995C4.87286 6.72323 5.13655 5.96916 5.62227 5.36303C6.10799 4.75691 6.78648 4.33524 7.54501 4.16808L9.30938 8.10558L7.51313 10.245C7.4841 10.2796 7.45717 10.3159 7.43251 10.3537C7.25546 10.6242 7.15137 10.9359 7.13034 11.2585C7.10932 11.5812 7.17207 11.9037 7.31251 12.195C8.19563 14.0025 10.0153 15.81 11.8416 16.695C12.1347 16.8339 12.4589 16.8945 12.7825 16.8706C13.106 16.8468 13.4179 16.7394 13.6875 16.559C13.7238 16.5346 13.7585 16.508 13.7916 16.4793L15.8944 14.6915L19.8319 16.455C19.6647 17.2135 19.243 17.892 18.6369 18.3777C18.0308 18.8634 17.2767 19.1271 16.5 19.125Z" fill="#EC5B2A"/>
</g>
</svg>
