<svg width="16" height="16" viewBox="0 0 16 16" fill="none" xmlns="http://www.w3.org/2000/svg">
<g id="work_24dp_E8EAED_FILL0_wght400_GRAD0_opsz24">
<path id="Vector" d="M2.66634 14C2.29967 14 1.98579 13.8694 1.72467 13.6083C1.46356 13.3472 1.33301 13.0333 1.33301 12.6666V5.33331C1.33301 4.96665 1.46356 4.65276 1.72467 4.39165C1.98579 4.13054 2.29967 3.99998 2.66634 3.99998H5.33301V2.66665C5.33301 2.29998 5.46356 1.98609 5.72467 1.72498C5.98579 1.46387 6.29967 1.33331 6.66634 1.33331H9.33301C9.69967 1.33331 10.0136 1.46387 10.2747 1.72498C10.5358 1.98609 10.6663 2.29998 10.6663 2.66665V3.99998H13.333C13.6997 3.99998 14.0136 4.13054 14.2747 4.39165C14.5358 4.65276 14.6663 4.96665 14.6663 5.33331V12.6666C14.6663 13.0333 14.5358 13.3472 14.2747 13.6083C14.0136 13.8694 13.6997 14 13.333 14H2.66634ZM2.66634 12.6666H13.333V5.33331H2.66634V12.6666ZM6.66634 3.99998H9.33301V2.66665H6.66634V3.99998Z" fill="#191919"/>
</g>
</svg>
